<svg width="98" height="41" viewBox="0 0 98 41" fill="none" xmlns="http://www.w3.org/2000/svg">
<path d="M90.038 14.2441C90.1859 14.2179 90.3374 14.2193 90.4849 14.2482C90.7372 14.2848 90.6582 14.4553 90.6598 14.5974C90.6589 14.6871 90.651 14.7766 90.636 14.865L90.5877 15.0098L90.3174 15.575C90.1149 15.9932 89.8798 16.3948 89.6145 16.7763L88.8361 17.9495C88.4363 18.4972 88.0012 19.0183 87.5334 19.5092C87.0878 20.0518 86.5638 20.5164 86.0912 21.0424C82.6002 24.86 78.4536 28.0215 73.8479 30.3771C71.7487 31.4298 69.5553 32.2833 67.2966 32.9263C64.41 33.7776 61.4417 34.1886 58.617 35.3009C57.7471 35.6639 58.0701 36.9845 59.1161 38.1564C60.268 39.5365 62.0542 40.2192 63.833 39.9592C67.091 39.2736 70.2764 38.2798 73.3462 36.9913C76.4424 35.6692 79.3722 33.9873 82.0752 31.9803C85.2709 29.5663 88.8869 27.2961 91.711 24.1108C93.2715 22.3593 94.6281 20.4364 95.7548 18.3789L96.2521 17.4149C96.4629 17.0485 96.6507 16.6692 96.8143 16.2793C97.0945 15.5627 97.319 14.8255 97.4856 14.0743C97.6789 13.3698 97.8139 12.6505 97.8894 11.9237C97.6867 11.2221 97.2429 10.6145 96.636 10.2082C95.8722 9.64572 95.0249 9.20645 94.125 8.90633C93.6573 8.73705 93.1807 8.58827 92.6964 8.44591C92.2121 8.30355 91.665 8.14853 91.4011 8.08252C90.0791 7.78065 88.8162 7.53369 87.4967 7.20364C83.587 6.30301 79.6445 5.61243 75.9111 4.48607C73.0439 3.61604 70.2299 2.57939 67.4834 1.38141C66.8799 1.14328 66.3095 0.851309 65.6982 0.6196C63.425 -0.242311 62.5903 -0.195697 61.5807 0.701459C61.3351 0.880111 61.102 1.07525 60.8829 1.28553C60.2648 2.01155 60.8538 3.21383 62.4349 4.35508C64.8428 6.01347 67.3952 7.45165 70.0611 8.6522C71.3991 9.25365 72.755 9.8141 74.1044 10.3669C75.4538 10.9196 76.9078 11.2545 78.3055 11.6625C80.39 12.2521 82.4947 12.7725 84.5776 13.22L87.6609 13.9124L89.1623 14.2728L89.8502 14.4404L90.038 14.2441Z" fill="#62A1FF"/>
<path d="M29.1412 24.4365C31.2299 24.6574 33.3073 24.9269 35.3946 25.0837C37.482 25.2405 39.5822 25.4127 41.6731 25.4492C43.2044 25.4715 44.7096 25.7896 46.2484 25.7274C51.6549 25.6656 57.0431 25.0859 62.339 23.9962C63.5113 23.7453 64.6953 23.6019 65.8599 23.3574C67.0245 23.1129 68.2084 22.8914 69.3705 22.675C70.1257 22.5646 70.8627 22.3389 71.546 22.1582C72.3048 22.0108 73.0543 21.8189 73.7906 21.5836C75.2343 21.0257 76.612 20.31 77.8985 19.4493C78.7359 18.8918 78.1965 18.0915 77.0746 17.3743C75.7762 16.4848 74.216 16.0588 72.6457 16.165C72.2873 16.2042 71.9237 16.2216 71.5705 16.2825L70.5352 16.5101L68.444 16.9563C67.0322 17.186 65.6385 17.4528 64.2358 17.74C62.8331 18.0273 61.3943 18.1623 59.9788 18.4342C58.5633 18.7061 57.1027 18.8463 55.6513 19.1221C54.7722 19.2572 53.8855 19.3373 52.9964 19.3622C52.1041 19.4179 51.1989 19.4582 50.304 19.464L44.9119 19.2695C40.9679 19.0757 36.9088 18.9001 32.9397 18.3491C30.4783 18.0881 28.0395 17.6516 25.6007 17.2152L20.1232 15.9837C18.3066 15.496 16.4875 15.0364 14.7256 14.4115C13.3635 13.9215 12.0384 13.3354 10.7209 12.7429C9.40336 12.1504 8.13562 11.4771 6.80295 10.9755C6.21097 10.7668 5.66109 10.4837 5.0691 10.275C2.86522 9.51154 1.95008 9.66459 0.948527 10.7115C0.697695 10.9349 0.464894 11.1777 0.252291 11.4377C-0.360506 12.2636 0.16323 13.4814 1.60369 14.6882C2.67722 15.5502 3.7675 16.4633 4.94072 17.2418C6.11394 18.0203 7.38918 18.6091 8.6325 19.2376C9.87581 19.8662 11.2467 20.2575 12.5882 20.7386C13.9298 21.2197 15.2891 21.5817 16.6587 21.9872C20.7463 23.0932 24.8907 23.9776 29.0737 24.6364L29.1412 24.4365Z" fill="#62A1FF"/>
</svg>
